<svg xmlns="http://www.w3.org/2000/svg" viewBox="0 0 22 22"><title>icon-twitter</title><path d="M20,6.2a8.13,8.13,0,0,1-.86,1c-.68.68-.72.75-.72,1.32a12.76,12.76,0,0,1-.83,3.71A10.75,10.75,0,0,1,13.56,17a10.32,10.32,0,0,1-8,.91,9.35,9.35,0,0,1-2.36-1.09,3.6,3.6,0,0,1,1-.1,6.87,6.87,0,0,0,3.28-.91l.66-.4-.76-.26a3.7,3.7,0,0,1-2.29-2c-.07-.26,0-.27.64-.27h.71l-.6-.28A4,4,0,0,1,4.14,11,4.48,4.48,0,0,1,3.7,9.3a1.44,1.44,0,0,1,.58.14c.84.31,1,.24.47-.28A3.57,3.57,0,0,1,4,5.49l.21-.59L5,5.7a9.94,9.94,0,0,0,5.82,2.87l.61.07,0-.61a3.54,3.54,0,0,1,2.39-3.56,4.18,4.18,0,0,1,2.14,0A5,5,0,0,1,17,5l.6.41.66-.21a6.83,6.83,0,0,0,1.08-.42c.21-.11.39-.17.39-.14a3.61,3.61,0,0,1-.83,1.32c-.51.56-.37.61.67.23C20.16,6,20.17,6,20,6.2Z"/></svg>