<?xml version="1.0" encoding="utf-8"?>
<!-- Generator: Adobe Illustrator 21.1.0, SVG Export Plug-In . SVG Version: 6.00 Build 0)  -->
<svg version="1.1" id="Twitter" xmlns="http://www.w3.org/2000/svg" xmlns:xlink="http://www.w3.org/1999/xlink" x="0px" y="0px"
	 viewBox="0 0 50 50" style="enable-background:new 0 0 50 50;" xml:space="preserve">
<style type="text/css">
	.st0{opacity:0.1;enable-background:new    ;}
	.st1{fill:#FFFFFF;}
</style>
<g id="contour" class="st0">
	<path class="st1" d="M25,50C11.2,50,0,38.8,0,25S11.2,0,25,0s25,11.2,25,25S38.8,50,25,50z M25,1C11.8,1,1,11.8,1,25s10.8,24,24,24
		s24-10.8,24-24S38.2,1,25,1z"/>
</g>
<path id="twitter-2" class="st1" d="M37.7,18.5c-0.4,0.5-0.8,0.9-1.2,1.3c-1,1-1,1.1-1,1.9c-0.1,1.8-0.5,3.5-1.2,5.2
	c-1.2,2.8-3.2,5.1-5.7,6.7c-3.4,1.9-7.5,2.4-11.2,1.3c-1.2-0.4-2.3-0.9-3.3-1.5c0.5-0.1,0.9-0.2,1.4-0.1c1.6,0,3.2-0.5,4.6-1.3
	l0.9-0.6L20,31c-1.4-0.4-2.6-1.5-3.2-2.8c-0.1-0.4-0.1-0.4,0.9-0.4l1,0l-0.8-0.4c-1-0.5-1.8-1.3-2.3-2.2c-0.4-0.7-0.6-1.5-0.6-2.3
	c0.3,0,0.6,0.1,0.8,0.2c1.2,0.4,1.3,0.3,0.7-0.4c-1.3-1.4-1.7-3.4-1.1-5.1l0.3-0.8l1.1,1.1c2.2,2.2,5.1,3.6,8.2,4l0.9,0.1L25.6,21
	c-0.1-2.2,1.2-4.3,3.3-5c1-0.3,2-0.3,3-0.1c0.5,0.2,1,0.4,1.5,0.8l0.8,0.6l0.9-0.3c0.5-0.2,1-0.3,1.5-0.6c0.2-0.1,0.4-0.2,0.6-0.2
	c-0.2,0.7-0.6,1.3-1.2,1.9c-0.7,0.8-0.5,0.8,0.9,0.3C37.9,18.1,37.9,18.1,37.7,18.5z"/>
</svg>
